/* XPM */
static char *a9043cfd70014a46be3787de4cf6dff6GGoPyxQIxD1yczxh[] = {
/* columns rows colors chars-per-pixel */
"64 64 4 1 ",
"  c black",
". c gray33",
"X c gray66",
"o c gray99",
/* pixels */
"                                                                ",
" .............................................................. ",
" ...   ...................................................   .. ",
" .. o.  ................................................. o.  . ",
" .. ..  ................................................. ..  . ",
" ...   ...................................................   .. ",
" ........... ... ... ... ... ... ... ... ... ... ... .......... ",
" .............................................................. ",
" ..........                                          o......... ",
" ..........                                         Xo......... ",
" ...   ....  .......................................Xo....   .. ",
" .. o.  ...  .......................................Xo... o.  . ",
" .. ..  ...  .......................................Xo... ..  . ",
" ...   ....  .......................................Xo....   .. ",
" ..........  .......................................Xo......... ",
" ..........  .......................................Xo......... ",
" ..........  .......................................Xo......... ",
" ..........  .......................................Xo......... ",
" ...   ....  .......................................Xo....   .. ",
" .. o.  ...  .......................................Xo... o.  . ",
" .. ..  ...  .......................................Xo... ..  . ",
" ...   ....  .......................................Xo....   .. ",
" ..........  .......................................Xo......... ",
" ..........  .......................................Xo......... ",
" ..........  .......................................Xo......... ",
" ..........  .......................................Xo......... ",
" ...   ....  .......................................Xo....   .. ",
" .. o.  ...  .......................................Xo... o.  . ",
" .. ..  ...  .......................................Xo... ..  . ",
" ...   ....  .......................................Xo....   .. ",
" ..........  .......................................Xo......... ",
" ..........  .......................................Xo......... ",
" ..........  .......................................Xo......... ",
" ..........  .......................................Xo......... ",
" ...   ....  .......................................Xo....   .. ",
" .. o.  ...  .......................................Xo... o.  . ",
" .. ..  ...  .......................................Xo... ..  . ",
" ...   ....  .......................................Xo....   .. ",
" ..........  .......................................Xo......... ",
" ..........  .......................................Xo......... ",
" ..........  .......................................Xo......... ",
" ..........  .......................................Xo......... ",
" ...   ....  .......................................Xo....   .. ",
" .. o.  ...  .......................................Xo... o.  . ",
" .. ..  ...  .......................................Xo... ..  . ",
" ...   ....  .......................................Xo....   .. ",
" ..........  .......................................Xo......... ",
" ..........  .......................................Xo......... ",
" ..........  .......................................Xo......... ",
" ..........  .......................................Xo......... ",
" ...   ....  .......................................Xo....   .. ",
" .. o.  ...  .......................................Xo... o.  . ",
" .. ..  ...  .......................................Xo... ..  . ",
" ...   ....  .......................................Xo....   .. ",
" ..........  XXXXXXXXXXXXXXXXXXXXXXXXXXXXXXXXXXXXXXXXo......... ",
" .......... oooooooooooooooooooooooooooooooooooooooooo......... ",
" .............................................................. ",
" ........... ... ... ... ... ... ... ... ... ... ... .......... ",
" ...   ...................................................   .. ",
" .. o.  ................................................. o.  . ",
" .. ..  ................................................. ..  . ",
" ...   ...................................................   .. ",
" .............................................................. ",
"                                                                "
};
